<?xml version="1.0" encoding="UTF-8"?> <svg xmlns="http://www.w3.org/2000/svg" xmlns:xlink="http://www.w3.org/1999/xlink" width="1921" height="762" viewBox="0 0 1921 762" preserveAspectRatio="none"><defs><clipPath id="clip-path"><rect id="Rectangle_148286" data-name="Rectangle 148286" width="1921" height="762" transform="translate(0 6098)" fill="#fff" stroke="#707070" stroke-width="1"></rect></clipPath><clipPath id="clip-path-2"><path id="Union_77" data-name="Union 77" d="M0,931.144l651.83-3.615c39.541-.19,75.351.107,101.281.75,25.89.63,42.01,1.557,42.01,2.723s-15.98,2.307-41.881,3.187S691.55,935.709,652,935.9L0,938.278Zm885.03-1.784a23.682,23.682,0,0,1-4.73-.309,23.413,23.413,0,0,1,4.721-.369c2.92-.1,6.95-.19,11.4-.19l126.751-.464,82.75-.238h36.67l.651.059h-2.68l-7.56.084-27.07.226-82.75.546-126.741.738c-.907,0-1.8.007-2.671.007C890.4,929.451,887.35,929.416,885.03,929.36ZM0,922.963l626.61.892,280.77.678,78.56.368,20.68.179,5.3.095h1.34l.461.1a1.279,1.279,0,0,1-.461,0h-1.339l-5.3.1-20.68.19-78.56.356-280.77.69L0,927.422Zm0-2.211V12.569L899.34,9.608l463-1.189h138.35l37.42.143,9.71.107,2.47.071a3.773,3.773,0,0,1,.841.071,5.306,5.306,0,0,1-1.22.107l-3.63.107-14.18.262-54.19.642-196.59,1.653L656.54,15.8,1444,17.42l253,.927,70.19.5,18.44.25,4.72.13a6.52,6.52,0,0,1,1.59.131,7.7,7.7,0,0,1-1.561.119l-4.63.131-18.11.249-69,.488-248.8.927L672.76,22.878l16.31.725L1920,24.5v2.711l-828.64.654c201.37.749,399.721,1.724,585.18,2.818L1920,32.272V894.307H1732.847c32.186.22,63.389.442,93.293.664,33.051.238,64.5.488,93.891.737v5.078l-129.47.5-719,2.105,712.71,2.687,135.73.749v3.317c-137.56,1.617-316.229,3.77-321.33,3.77,91.33,0,212.7.7,321.33,1.509v4.864L1812.66,921.37ZM0,1.415,207.8.976,337.23.94l34.89.19h9.049l2.3.119a3.226,3.226,0,0,1,.73.084,3.53,3.53,0,0,1-.77.083l-2.3.084-9,.2-34.89.463L207.82,3.353,13.35,4.887,0,4.982Zm906.59.869h-.329V2.224c-4.091-.417-7.16-.8-9.09-1.189q4.219-.524,9.32-.976a.165.165,0,0,1,0-.059h.66c4.081.369,7.17.75,9.1,1.13q-4.22.536-9.32.976v.178Zm105.73-.155h-5.06c-30.97-.321-54.42-.653-69.08-1l70.79-.868h5.11c30.97.321,54.419.654,69.13,1.011l-70.84.856Z" transform="translate(7387.984 6122)" fill="#fba10f"></path></clipPath></defs><g id="Mask_Group_350" data-name="Mask Group 350" transform="translate(0 -6098)" clip-path="url(#clip-path)"><g id="Group_164229" data-name="Group 164229"><g id="Layer_1" data-name="Layer 1" transform="translate(0.016 6097.617)"><rect id="Rectangle_148284" data-name="Rectangle 148284" width="1920" height="845.948" transform="translate(0 48.36)" fill="#ff8f14"></rect><path id="Path_42239" data-name="Path 42239" d="M383.47,1.3l-2.3-.119h-9.05L337.23.989,207.8,1.025,0,1.465V5.032l13.35-.1L207.82,3.4,337.24,2.214l34.89-.464,9-.2,2.3-.083a3.528,3.528,0,0,0,.77-.083,3.225,3.225,0,0,0-.73-.083ZM753.11,928.327c-25.93-.642-61.74-.939-101.28-.749L0,931.193v7.134l652-2.378c39.55-.19,75.34-.832,101.24-1.712s41.88-2.021,41.88-3.187S779,928.958,753.11,928.327Zm389.48-.487h-36.67l-82.75.238-126.75.464c-4.45,0-8.48.1-11.4.19a23.48,23.48,0,0,0-4.72.369,23.685,23.685,0,0,0,4.73.309c2.92.071,7,.107,11.41.083l126.74-.737,82.75-.547,27.07-.226,7.56-.083h2.68Zm-129.33-2.616h-1.34l-5.3-.1-20.68-.178-78.56-.369L626.61,923.9,0,923.012v4.459l626.61-.821,280.77-.69,78.56-.357,20.68-.19,5.3-.1h1.34a1.278,1.278,0,0,0,.46,0ZM1920,24.545,689.07,23.653l-16.31-.725,777.08-1.605,248.8-.927,69-.488,18.11-.25,4.63-.131a7.789,7.789,0,0,0,1.56-.119,6.493,6.493,0,0,0-1.59-.131l-4.72-.131-18.44-.25L1697,18.4l-253-.927L656.54,15.853l624.78-4.221,196.59-1.653,54.19-.642,14.18-.262,3.63-.107a5.355,5.355,0,0,0,1.22-.107,3.774,3.774,0,0,0-.84-.071l-2.47-.071-9.71-.107-37.42-.143H1362.34l-463,1.189L0,12.619V96.686l330.75.44c67,0,127.76-1.391,172.16-3.567l878.83-3.2,421.71-1.855L1920,87.911V68.957l-58-.345c19.54-.107,38.92-.214,58-.3V51.121q-34.08-.273-70.2-.476l70.2-.369V32.322l-243.46-1.593c-185.46-1.094-383.81-2.069-585.18-2.818L1920,27.256Zm0,842.545h-1l-512.85-.69-144.6-.571c289.61-.963,445.28-1.451,528.56-2,41.64-.273,65.17-.559,78.3-.927s15.85-.832,15.85-1.439c0-.273-3.72-.547-11-.82s-18-.571-32-.856c-28.13-.583-69.51-1.189-122.55-1.784-106.09-1.189-258.84-2.438-445.44-3.567C934.82,852.274,485,850.36,0,849.159V920.8l1812.66.618L1920,920.337v-4.863c-108.63-.808-230-1.51-321.33-1.51,5.1,0,183.77-2.152,321.33-3.769v-3.318l-135.73-.749-712.71-2.687,719-2.1,129.47-.5v-5.077c-29.39-.25-60.84-.5-93.89-.737-188.44-1.4-428.89-2.782-637-3.651,495.36-1.629,663.89-3.127,730.85-3.567v-2.557c-38.55-2.212-135.48-5.291-402.45-6.338l-251.81-1.034c234.78-.9,436.64-1.855,579.8-2.866q40.5-.285,74.46-.583v-5.161c-23.22-.2-48.82-.392-76.6-.594l76.6-.155ZM907.15.05h-.66a.155.155,0,0,0,0,.059q-5.1.452-9.32.975c1.93.392,5,.773,9.09,1.189v.059h.67V2.155q5.1-.44,9.32-.975C914.32.8,911.23.419,907.15.05Zm106.93.262h-5.11l-70.79.868c14.66.345,38.11.678,69.08,1h5.11l70.84-.856C1068.5.966,1045.05.633,1014.08.312ZM313.9,112.953h-.66c-3.4.285-6.51.618-9.32.963,1.93.392,5,.773,9.09,1.189h.67q5.1-.44,9.33-.963A73.328,73.328,0,0,0,313.9,112.953Zm-19.18.987h-2l-7.8-.107-30.08-.238-111.24-.571L0,112.537V114.8l143.6-.155,111.25-.285,30.08-.214,7.8-.1h2a2.949,2.949,0,0,0,.67,0,3.708,3.708,0,0,0-.68-.107Zm18.54,714.636L0,828.516v5.018l313.26.571c80,0,121.67-1.082,176.15-2.878-11.56-.167-96.18-2.664-176.15-2.664ZM0,841.026v4.756c468.58-.333,884.55-1.046,1189.31-1.7l524.53-1.344ZM498.75,97.768c-39.94-.4-89.88-.642-144.09-.642L0,97.269v5.945l354.66.143c54.21,0,104.15-.238,144.09-.642L1920,101.585V98.851Zm-77.93,15.458h-5.06l-70.84.844c14.66.345,38.11.678,69.08,1h5.06l70.84-.856c-14.66-.357-38.11-.69-69.08-1Zm1479.37-2.913-430-.4L875.8,109.54c-48.45,0-76.52.381-92.14,1.427,8,.88,43.69,1.617,92.14,1.617l594.39-.369,430-.416,19.81-.036v-1.439Z" transform="translate(0 -0.05)" fill="#ff8f14"></path></g><g id="Mask_Group_349" data-name="Mask Group 349" transform="translate(-7387.984 -24.383)" clip-path="url(#clip-path-2)"><g id="Group_164228" data-name="Group 164228" transform="translate(3796.304 5976.012)"><path id="Path_42240" data-name="Path 42240" d="M4000.849,356l17.384-6.017,19-6.408,30.887-10.569c17.186-5.85,23.494-8.2,22.88-8.231-.633-.08-8.187,2.159-18.749,5.41l-17.594,5.5c-6.262,2.046-12.752,4.265-19.021,6.39l-17.6,6.068c-5.284,1.9-9.824,3.625-13.167,4.918C3970.91,365.814,3979.981,363.144,4000.849,356Z" fill="#fba10f"></path><path id="Path_42241" data-name="Path 42241" d="M4185.574,299.858l13.509-3.472c5.13-1.34,10.906-2.639,17.091-4.153,24.734-6.139,56.687-13.333,86.623-19.284,29.925-6,57.789-10.855,74.062-13.6,5.155-.9,9.924-1.607,14.295-2.318l11.973-1.9,17.418-2.64c8.851-1.3,12.356-1.846,11.68-1.87-1.346-.025-19.414,2.041-44.615,5.821-25.206,3.734-57.523,9.288-87.463,15.342s-57.526,12.416-73.54,16.64l-25.808,6.548-16.967,4.7c-8.6,2.413-11.993,3.432-11.318,3.359S4177.927,301.806,4185.574,299.858Z" fill="#fba10f"></path><path id="Path_42242" data-name="Path 42242" d="M4097.136,324.819c-13.126,4.272,11.814-3.155,16.848-5.026C4109.808,320.939,4103.457,322.778,4097.136,324.819Z" fill="#fba10f"></path><path id="Path_42243" data-name="Path 42243" d="M4118.13,316.63c6.122-2.054-3.247.6-5.68,1.479C4106.341,320.161,4115.689,317.51,4118.13,316.63Z" fill="#fba10f"></path><path id="Path_42244" data-name="Path 42244" d="M4740.788,751.674c3.17-3.347,6.15-6.713,9.134-9.985Z" fill="#fba10f"></path><path id="Path_42245" data-name="Path 42245" d="M4854.588,582.692q.855-2.164,1.743-4.416c.687-1.778,1.388-3.634,2.041-5.51a169.8,169.8,0,0,0,6.417-23.48l.555-2.948q.232-1.35.463-2.684.388-2.3.766-4.519c.51-3.06,1-6,1.46-8.747.914-5.629,1.647-10.713,2.095-14.547,1.253-9.7,1.726-16.892,1.867-21.429s.008-6.45-.11-6.091-.31,2.893-.663,6.877c-.368,3.964-.947,9.331-1.793,15.31-.833,5.995-1.941,12.564-3.1,19.152l-1.738,9.789q-.417,2.388-.832,4.771c-.344,1.984-.707,3.957-1.11,5.905a184.262,184.262,0,0,1-5.813,21.569c-.537,1.592-1.07,3.125-1.6,4.584l-1.368,3.72-2.153,5.916c-3.188,8.591-5.5,14.585-6.917,18.337-1.434,3.76-1.933,5.281-1.7,5.052.443-.447,3.911-7.95,8.168-18.349C4852.3,588.365,4853.42,585.591,4854.588,582.692Z" fill="#fba10f"></path><path id="Path_42246" data-name="Path 42246" d="M4834.244,629.2c9.965-21.739-.515.35-5.824,11.207,1.01-1.82,2.02-3.692,3.015-5.574C4832.377,632.945,4833.32,631.054,4834.244,629.2Z" fill="#fba10f"></path><path id="Path_42247" data-name="Path 42247" d="M4840.536,619.519c-1.673,4.285.455-.283,2.041-3.987,1.554-3.7,2.652-6.542-.8,1.139C4841.355,617.617,4840.934,618.562,4840.536,619.519Z" fill="#fba10f"></path><path id="Path_42248" data-name="Path 42248" d="M3763.3,470.139q61.79-27.8,124.014-53.385c10.4-4.193,20.767-8.447,31.174-12.58l31.264-12.219,31.372-11.813c5.213-1.995,10.476-3.862,15.726-5.754l15.744-5.67c84.038-29.888,169.235-55.591,255.726-74.778q32.392-7.275,64.983-13.332c21.719-4.059,43.48-7.814,65.3-11.085q32.732-4.941,65.587-8.788,32.862-3.754,65.827-6.377l16.487-1.235,16.5-1.047,16.186-1c5.456-.339,11.029-.673,16.719-.925a307.4,307.4,0,0,1,35.6.181l4.577.373,4.2.4c2.79.252,5.634.576,8.456.873s5.7.677,8.541,1.014c2.87.386,5.744.776,8.629,1.2a290.678,290.678,0,0,1,35.11,7.407,214.836,214.836,0,0,1,34.7,13.056c5.631,2.656,11.091,5.647,16.437,8.782,2.682,1.556,5.215,3.238,7.824,4.86,2.59,1.636,5.083,3.442,7.623,5.164a223.422,223.422,0,0,1,52.342,51.789,235.774,235.774,0,0,1,19.079,31.4c1.329,2.741,2.7,5.466,3.979,8.228,1.224,2.769,2.5,5.57,3.665,8.32,2.283,5.416,4.433,10.989,6.445,16.669a230.378,230.378,0,0,1,9.561,35.594c1.1,6.133,1.947,12.325,2.526,18.529.544,6.215.825,12.385.882,18.6a237.063,237.063,0,0,1-3.2,36.706c-.877,5.71-1.831,11.25-2.759,16.627l-1.378,8.042q-.824,4.785-1.919,9.53a169.92,169.92,0,0,1-5.463,18.636l-.828,2.273-.81,2.141-1.494,3.889-3.037,7.809c-4.127,10.452-8.5,21.021-13.367,31.6a350.735,350.735,0,0,1-16.436,31.518c-1.569,2.58-3.093,5.176-4.761,7.722l-2.466,3.828-2.571,3.785c-1.681,2.539-3.549,4.988-5.324,7.481l-5.182,6.8c-3.449,4.511-6.874,9.048-10.458,13.428-3.567,4.4-7.043,8.9-10.714,13.185-28.886,34.877-60.23,67.093-91.878,98.414-5.122,6.447-1.6,4.007,8.4-5.094,9.954-9.183,26.442-25.02,46.646-46.293,10.124-10.6,21.068-22.692,32.539-35.951l8.649-10.22c2.935-3.45,5.785-7.1,8.74-10.714l4.435-5.491,4.38-5.671,4.419-5.747c1.49-1.953,2.932-3.765,4.543-6.029,12.7-17.308,23.274-36.581,32.064-56.039,4.424-9.733,8.476-19.528,12.3-29.235l2.832-7.26,1.392-3.616.724-1.894.8-2.155a174.826,174.826,0,0,0,5.4-17.674q1.116-4.5,1.983-9.046l.419-2.274.369-2.128.625-3.652c.846-4.914,1.738-9.991,2.587-15.217a292.588,292.588,0,0,0,3.811-33.337c.071-1.478.1-2.988.153-4.477q.018-2.281.035-4.556c-.07-2.86-.064-5.684-.231-8.532-.215-5.678-.745-11.346-1.4-16.946-.679-5.6-1.62-11.129-2.686-16.559-1.134-5.407-2.389-10.725-3.842-15.872a275.389,275.389,0,0,0-10-29.03c-1.779-4.444-3.845-9.047-5.845-13.482l-3.186-6.549c-1.043-2.169-2.229-4.259-3.327-6.36a230.8,230.8,0,0,0-14.4-23.422l-1.872-2.7-1.944-2.611c-1.3-1.724-2.565-3.438-3.851-5.105-2.678-3.257-5.185-6.513-7.88-9.471a231.048,231.048,0,0,0-30.355-28.971,270.8,270.8,0,0,0-23.031-16.224l-7.022-4.269c-1.718-1.053-2.837-1.662-3.205-1.954-.771-.527,1.424.281,6.685,3.143l3.5,1.992,3.343,2.067c2.207,1.393,4.439,2.691,6.545,4.165,2.125,1.44,4.24,2.852,6.309,4.292l6.042,4.452a241.182,241.182,0,0,1,21.758,18.728,233.2,233.2,0,0,1,32.449,39.663c4.37,6.6,8.085,13.213,11.552,19.644,1.664,3.243,3.271,6.442,4.8,9.6l2.162,4.739c.708,1.564,1.441,3.138,2.054,4.621a276.145,276.145,0,0,1,12.628,35.45,220.4,220.4,0,0,1,6.616,33.9c.649,5.44,1.016,10.752,1.263,15.938q.063,1.941.127,3.863l.056,1.933.013,2.048c.014,1.37.009,2.717-.026,4.03s-.047,2.648-.11,3.923a281.256,281.256,0,0,1-2.72,28.3c-.609,4.359-1.259,8.558-1.9,12.639q-.946,6-1.9,12.026a176.878,176.878,0,0,1-7.616,30.2c-.428,1.238-.9,2.547-1.337,3.721l-1.156,3.112-2.376,6.338c-1.615,4.279-3.315,8.688-5.131,13.236-3.634,9.091-7.664,18.751-12.591,29.1-1.254,2.585-2.486,5.21-3.863,7.877l-2.052,4.032q-1.082,2.028-2.182,4.091c-1.435,2.753-3.074,5.529-4.653,8.361q-1.255,2.112-2.534,4.26-1.263,2.151-2.649,4.314t-2.773,4.366q-1.461,2.181-2.95,4.4c-.976,1.486-2.039,2.953-3.1,4.439l-1.6,2.236-.806,1.125-.756,1-6.169,8.174c-2.108,2.76-4.2,5.635-6.457,8.423l-6.829,8.606c-1.165,1.455-2.319,2.949-3.525,4.41l-3.66,4.413-7.534,9.076-7.967,9.24-4.1,4.747-4.238,4.755-8.741,9.758c-6.016,6.5-12.22,13.321-18.792,20.176q-19.625,20.718-42.754,43.658c10.6-10.313,26.441-25.838,46.32-46.581,2.495-2.57,5.029-5.268,7.621-8.049l7.984-8.532,8.27-9.1,4.272-4.713,4.3-4.9c11.661-13.118,23.9-27.865,36.5-44.121l4.735-6.177,2.394-3.126q1.282-1.759,2.575-3.532c3.494-4.773,6.77-9.739,9.991-14.8A336.472,336.472,0,0,0,4839,631.6c5.3-10.914,10.088-22.073,14.628-33.295,2.249-5.6,4.464-11.239,6.618-16.854l.861-2.25.969-2.622c.637-1.755,1.243-3.532,1.831-5.321,1.166-3.584,2.241-7.229,3.2-10.93s1.8-7.451,2.523-11.241c.786-4.211,1.144-6.562,1.7-9.672,1.041-5.981,2.16-12.367,3.2-19.084,1.023-6.757,1.978-13.864,2.6-21.488.313-3.8.524-7.756.627-11.82l.035-3.1c.009-1.044.014-2.083-.012-3.016-.04-1.925-.061-3.849-.129-5.786a223.95,223.95,0,0,0-6.688-47.007c-1.946-7.741-4.281-15.337-6.887-22.716q-1.958-5.532-4.094-10.915c-.7-1.812-1.445-3.555-2.169-5.34l-.549-1.332-.6-1.376-1.213-2.753A242.6,242.6,0,0,0,4797.89,302.5c-3.227-2.835-6.382-5.781-9.765-8.457-1.675-1.357-3.331-2.747-5.037-4.07l-5.181-3.9c-1.716-1.322-3.5-2.538-5.281-3.766s-3.552-2.48-5.366-3.657c-3.673-2.305-7.241-4.676-11.127-6.85-3.787-2.264-7.745-4.3-11.687-6.363-4.013-1.936-8.024-3.911-12.152-5.624a222.811,222.811,0,0,0-25.1-9.072c-8.464-2.5-16.954-4.537-25.353-6.2-8.393-1.635-16.666-2.876-24.809-3.918l-6.081-.737-6.021-.656-5.959-.588-3.068-.288-3.429-.278c-9.1-.658-17.91-.78-26.353-.609-8.47.156-16.579.59-24.405,1.042l-22.983,1.376-11.763.723-11.774.842-11.788.878-11.793,1a1874.055,1874.055,0,0,0-188.24,26.032c-62.1,11.726-123.147,26.719-181.751,43.688-14.7,4.1-29.116,8.717-43.493,13.082-7.2,2.152-14.281,4.54-21.366,6.825l-21.142,6.882-20.825,7.13-10.333,3.547c-3.438,1.175-6.866,2.35-10.255,3.592l-20.272,7.3-10.051,3.621c-3.339,1.208-6.636,2.483-9.942,3.716-52.891,19.7-102.524,40.009-148.168,59.681-91.295,39.409-166.684,75.928-220.279,102.344-53.54,26.508-85.03,43.212-87.309,44.7-2.214,1.612,24.705-12.146,89.565-43.5C3769.222,452.785,3890.428,402.23,3985.157,368c47.337-17.189,88.075-30.244,123.966-40.971l13.233-3.932,6.447-1.912,6.372-1.775,24.469-6.764,5.877-1.619,5.815-1.5,11.384-2.9,21.838-5.523,20.883-4.852,10.107-2.338c3.333-.784,6.641-1.532,9.934-2.221,13.147-2.866,25.9-5.478,38.537-7.966,25.277-4.946,50.1-9.307,76.819-13.444s55.316-8.071,88.2-11.7,70.052-7,113.923-9.272q-86.8,4.861-173.135,18.027-43.1,6.533-85.936,15.028c-28.544,5.676-56.987,11.908-85.262,19C4105.347,329.074,3995,367.334,3887.5,411.045l-10.086,4.089-10.037,4.192-20.072,8.387c-13.353,5.647-26.635,11.432-39.944,17.163-13.229,5.882-26.505,11.677-39.687,17.639l-19.758,8.972-9.874,4.492-9.832,4.565Q3649.529,516.976,3572.3,555.9q-77.2,38.969-152.9,80.194-75.688,41.187-149.732,84.518,123.87-69.364,247.032-132.066Q3640.01,525.876,3763.3,470.139Z" fill="#fba10f"></path><path id="Path_42249" data-name="Path 42249" d="M4704.17,768.025c-4.679,4.981-2.491,2.891,1.3-.948s9.116-9.53,10.843-11.552C4713.25,758.53,4708.7,763.264,4704.17,768.025Z" fill="#fba10f"></path><path id="Path_42250" data-name="Path 42250" d="M4721.145,753.416c2.125-2.4,1.5-1.875.138-.491-1.375,1.364-3.5,3.563-4.332,4.536C4712.669,762.21,4719.463,755.368,4721.145,753.416Z" fill="#fba10f"></path><path id="Path_42251" data-name="Path 42251" d="M4702.441,781.216c1.883-1.75,8.477-8.828,3.884-4.351C4704.437,778.624,4697.857,785.68,4702.441,781.216Z" fill="#fba10f"></path><path id="Path_42252" data-name="Path 42252" d="M5563.355,1118.8c-4.638.119-11.048.237-18.526.576-14.958.586-34.2,1.687-52.1,3.026-8.952.693-17.572,1.406-25.158,2.112-7.584.741-14.14,1.374-18.962,1.95l-15.554,1.763c-4.277.5-7.674.964-10.282,1.308-5.216.7-7.274,1.057-6.871,1.136s3.267-.117,7.893-.516l18.474-1.638c14.914-1.369,34.107-2.938,52-4.288,8.945-.646,17.563-1.3,25.158-1.786l19.008-1.318,25.917-1.642c5.239-.372,7.311-.557,6.913-.666A75.629,75.629,0,0,0,5563.355,1118.8Z" fill="#fba10f"></path><path id="Path_42253" data-name="Path 42253" d="M5243.144,1156.81c-33.979,6.738-77.531,16.274-117.917,26.238-40.411,9.844-77.654,19.946-99.325,26.025-54.976,15.485-75.14,22.019-73.35,21.643,1.8-.313,25.628-7.232,59.125-16.424,33.488-9.233,76.677-20.607,117.076-30.405,40.373-9.917,77.954-18.138,99.94-22.876,27.839-5.921,46.966-9.639,58.882-11.991,11.919-2.335,16.633-3.277,15.718-3.217C5301.465,1145.93,5277.114,1150.037,5243.144,1156.81Z" fill="#fba10f"></path><path id="Path_42254" data-name="Path 42254" d="M5412.974,1128.973c-.814.032-3.625.326-7.216.732l-11.9,1.4c-3.922.491-7.334,1.127-9.083,1.441l4.77-.62,2.719-.362,2.916-.317c3.99-.441,8.356-.956,12.728-1.524C5412.423,1129.121,5413.782,1128.939,5412.974,1128.973Z" fill="#fba10f"></path><path id="Path_42255" data-name="Path 42255" d="M5378.653,1135.285a18.849,18.849,0,0,0-2.848.562,22.473,22.473,0,0,0,2.289-.238c2.55-.32,6.566-.9,8.24-1.211C5394.708,1132.978,5382.016,1134.661,5378.653,1135.285Z" fill="#fba10f"></path><path id="Path_42256" data-name="Path 42256" d="M3926.372,1267.351c.169,3.615.307,7.194.64,10.732-.617-7.534-.8-15-.672-21.734C3926.223,1260.07,3926.312,1263.731,3926.372,1267.351Z" fill="#fba10f"></path><path id="Path_42257" data-name="Path 42257" d="M4183.826,1465.019c-5.3,1.18-10.646,2.254-15.957,3.05a218.921,218.921,0,0,1-30.157,2.546c-9.161.138-17.072-.344-22.881-.8-3.671-.387-7.066-.7-10.146-1.172l-4.429-.631-4-.685c-2.544-.411-4.8-.887-6.81-1.294l-2.839-.574-2.519-.577c-3.124-.712-5.309-1.206-6.646-1.564-1.342-.33-1.856-.418-1.643-.29a26.249,26.249,0,0,0,2.718.989c1.567.518,3.783,1.1,6.521,1.853a203.217,203.217,0,0,0,51.987,6.558,211.44,211.44,0,0,0,32.8-2.7c2.671-.433,5.3-.951,7.893-1.427,2.57-.562,5.113-1.095,7.584-1.679l3.648-.922.782-.2-.1.02.076-.017a2.144,2.144,0,0,1,.339-.076l4.906-.862c7.914-1.387,14.754-2.621,19.792-3.578l4.6-.837c1.469-.276,2.86-.6,4.2-.879l7.327-1.581,10.631-2.349c5.389-1.224,7.5-1.784,7.073-1.821-.864-.075-11.915,1.94-27.364,4.889-7.762,1.339-16.676,2.727-25.948,4.277l-5.647.929C4190,1463.479,4186.239,1464.459,4183.826,1465.019Z" fill="#fba10f"></path><path id="Path_42258" data-name="Path 42258" d="M4041.477,1449.364c-2.462-1.255-4.99-2.52-7.371-3.8-2.364-1.31-4.661-2.49-6.618-3.645a168.2,168.2,0,0,0,16.854,9.195c8.344,3.932,12.626,5.425,13.883,5.9,1.267.448-.423-.289-3.7-1.659C4051.254,1453.957,4046.442,1451.791,4041.477,1449.364Z" fill="#fba10f"></path><path id="Path_42259" data-name="Path 42259" d="M4058.373,1459.2c1.708.692,5.006,1.918,7.972,2.921,2.978.965,5.592,1.788,5.935,1.831.316.045-1.663-.613-7.852-2.795l-4.529-1.618C4056.536,1458.375,4056.675,1458.466,4058.373,1459.2Z" fill="#fba10f"></path><path id="Path_42260" data-name="Path 42260" d="M3926.987,1205.213l0-.021v0Z" fill="#fba10f"></path><path id="Path_42261" data-name="Path 42261" d="M3926.964,1205.307c-.007.032.009-.041.022-.095l0,.016Z" fill="#fba10f"></path><path id="Path_42262" data-name="Path 42262" d="M3926.994,1205.179c.005-.024,0-.014,0,.006v.007Z" fill="#fba10f"></path><path id="Path_42263" data-name="Path 42263" d="M4189.546,1462.785l-.017,0,.087-.016-.01,0Z" fill="#fba10f"></path><path id="Path_42264" data-name="Path 42264" d="M5926.072,904.923q-.013-1.794-.03-3.58t-.048-3.565l-.032-1.778-.091-1.577q-.2-3.112-.4-6.2a259.675,259.675,0,0,0-7.9-47.837,224.527,224.527,0,0,0-16.4-43.718,189.285,189.285,0,0,0-24.641-37.408q-3.639-4.092-7.252-8.047c-2.535-2.534-5.082-5.005-7.6-7.439-.645-.642-1.227-1.131-1.826-1.664l-1.784-1.571-3.543-3.109c-1.159-1.042-2.377-2.023-3.585-3l-3.6-2.913a246.651,246.651,0,0,0-29.1-19.909,228.218,228.218,0,0,0-28.529-13.924l-6.83-2.641c-2.247-.833-4.493-1.539-6.679-2.283-4.358-1.538-8.658-2.623-12.745-3.8-2.046-.582-4.079-.994-6.053-1.476-1.979-.452-3.909-.932-5.805-1.319-3.8-.7-7.418-1.428-10.862-1.958-3.446-.478-6.71-.953-9.787-1.325l-8.66-.8c-2.7-.245-5.19-.291-7.5-.42l-3.311-.148-1.513-.058-1.277-.015c-6.637-.072-10.536-.078-11.5-.014s1,.2,6.1.407l4.413.171,2.682.1,3.4.216c2.38.165,4.988.293,7.838.543l9.269.99a231.408,231.408,0,0,1,50.915,12.4,228.108,228.108,0,0,1,32.154,15.016,238.6,238.6,0,0,1,33.993,23.4c3.61,2.847,6.969,5.88,10.356,8.868l1.267,1.122,1.324,1.277,2.638,2.57,2.622,2.577c.878.853,1.742,1.717,2.541,2.633,3.253,3.612,6.569,7.166,9.461,10.98,1.467,1.891,3.019,3.731,4.385,5.668l4.07,5.813c1.389,1.92,2.586,3.919,3.815,5.9,1.213,1.988,2.47,3.957,3.62,5.961q1.65,3.033,3.295,6.054c.539,1.011,1.1,2.013,1.614,3.029l1.471,3.064,2.9,6.122q1.3,3.093,2.585,6.173l1.274,3.082c.426,1.025.768,2.065,1.154,3.1q1.118,3.1,2.23,6.191a251.584,251.584,0,0,1,11.183,49.289c.306,2.029.46,4.054.674,6.075q.293,3.031.584,6.049.192,3.016.383,6.02l.184,3,.042.761.014.847.026,1.694q.03,3.384.061,6.755c0,.561.013,1.127,0,1.681l-.085,1.648-.179,3.289c-.141,2.183-.218,4.393-.436,6.537q-.379,3.2-.753,6.382l-.392,3.178c-.146,1.051-.351,2.073-.525,3.108q-.554,3.094-1.109,6.176c-.334,2.074-.875,4.036-1.323,6.045q-.711,2.992-1.421,5.973c-1.116,3.884-2.195,7.775-3.414,11.573q-.973,2.818-1.939,5.624c-.647,1.87-1.281,3.743-2.033,5.547a234.573,234.573,0,0,1-20.652,41.032A212.646,212.646,0,0,1,5861.5,1048.6a205.574,205.574,0,0,1-33.912,27.513,225.183,225.183,0,0,1-74.587,31.6,185.239,185.239,0,0,1-39.827,4.425l-5.05-.026-3.953-.109-7.663-.228c-5.083-.161-10.12-.308-15.113-.383-39.931-.866-76.894-.338-111.227.837-34.335,1.246-66.043,3.225-95.51,5.579-7.37.556-14.592,1.247-21.688,1.843l-20.887,1.972-20.122,2.082-19.049,2.127c-3.116.345-6.161.85-9.2,1.26l-9.066,1.294-18.025,2.689q-17.714,2.707-34.257,5.438c-22.092,3.644-42.759,7.314-62.412,10.988-39.305,7.359-74.56,14.69-108.982,22.391-34.417,7.758-68.038,15.782-103.979,25s-74.214,19.62-117.892,32.355c-43.672,12.76-92.767,27.788-150.267,46.622,75.791-25.075,152.141-48.724,229.163-70.073q57.765-16.011,116.028-30.181,58.244-14.2,117-26.026t117.949-21.136l14.8-2.267,14.538-2.142c2.409-.387,4.854-.629,7.287-.921l7.3-.851,7.305-.853,7.436-.8q29.734-3.291,59.545-5.693,29.8-2.493,59.65-4.054,29.844-1.654,59.711-2.334,29.862-.777,59.718-.536c4.974.052,9.951.042,14.924.143l14.92.27,14.913.408,7.61.2,9.39.007a186.428,186.428,0,0,0,36.1-4.849c2.907-.682,5.829-1.337,8.655-2.206l4.271-1.235c1.425-.411,2.851-.818,4.236-1.316l8.359-2.877,8.186-3.243a232.775,232.775,0,0,0,31.258-15.976c2.479-1.577,4.992-3.086,7.43-4.738l7.26-5.058c2.369-1.781,4.715-3.607,7.064-5.419,1.186-.884,2.315-1.878,3.458-2.844l3.417-2.915c2.3-1.891,4.458-4.059,6.666-6.12,1.085-1.055,2.219-2.058,3.259-3.162l3.132-3.3,3.119-3.312,2.921-3.411c1.944-2.277,3.909-4.548,5.673-6.918a213.813,213.813,0,0,0,19.4-29.4c11.2-20.483,19.663-42.484,23.837-66.373l.785-4.471c.212-1.511.38-3.04.567-4.56.347-3.052.784-6.062.9-9.2l.26-4.662.121-2.331c.042-.775.006-1.578.011-2.366l-.045-4.749-.034-2.374c-.012-.793-.019-1.6-.075-2.28a263.178,263.178,0,0,0-3.873-34.035,243.6,243.6,0,0,0-8.547-33.7,209.965,209.965,0,0,0-14.174-32.591,181.274,181.274,0,0,0-20.363-30.132c-1.984-2.34-4.084-4.6-6.137-6.887l-1.556-1.7-1.649-1.625-3.312-3.238-1.661-1.612c-.553-.531-1.118-1.1-1.646-1.543l-3.221-2.837c-2.145-1.893-4.287-3.787-6.552-5.573a224.079,224.079,0,0,0-59.858-35.6,209.6,209.6,0,0,0-33.624-10.273,233.739,233.739,0,0,0-34.488-4.742l-4.311-.224-2.156-.109-1.077-.053-.968-.02-7.677-.147-15.351-.291-15.348-.287c-2.558-.067-5.115-.071-7.671-.053l-7.67.021-30.669.1-30.631.731c-5.1.151-10.211.189-15.306.434l-15.289.679-15.284.683-7.64.343c-2.548.108-5.087.31-7.631.461l-30.5,1.966c-5.086.29-10.156.731-15.227,1.158l-15.212,1.271-15.207,1.275c-5.069.414-10.118,1-15.176,1.5l-30.326,3.106-30.236,3.632c-5.034.629-10.081,1.163-15.1,1.871l-15.067,2.071-15.061,2.075c-5.02.687-10.04,1.367-15.039,2.171l-30.013,4.637c66.294-9.7,132.506-17.019,198.535-21.57,8.243-.682,16.51-1.022,24.756-1.513l24.725-1.375,24.718-.911,12.343-.45,6.168-.223,6.172-.1,24.661-.412,12.315-.193,12.313.047,24.6.093c2.048.018,4.095-.005,6.143.045l6.142.153,12.276.307,12.266.307,6.13.154,3.064.076,1.531.039c.514.013,1.117.057,1.67.084,4.523.261,9.039.448,13.564.978,2.261.254,4.522.4,6.779.752l6.767.986a213.065,213.065,0,0,1,26.757,6.077l3.3.961c1.095.335,2.176.725,3.263,1.087l6.509,2.228c4.258,1.7,8.579,3.253,12.724,5.2a222.531,222.531,0,0,1,46.563,28.047l5.211,4.24,2.6,2.126,2.5,2.212,5,4.431,5.1,4.99,2.529,2.513,2.378,2.639c1.576,1.767,3.174,3.52,4.714,5.312l4.387,5.544c.716.933,1.48,1.838,2.153,2.8l2.015,2.88a181.267,181.267,0,0,1,14.267,23.918l2.954,6.223.734,1.557.661,1.578,1.313,3.159c1.826,4.2,3.293,8.474,4.823,12.739a228.4,228.4,0,0,1,7.092,25.934c1.017,4.347,1.666,8.723,2.455,13.086.337,2.186.61,4.374.914,6.561l.442,3.281c.131,1.094.224,2.189.337,3.284l.64,6.567.412,6.568.192,3.3.046,3.6c.006,2.4.083,4.819,0,7.2-.276,4.719-.438,9.488-1.1,14.087l-.423,3.476c-.134,1.162-.284,2.318-.5,3.446l-1.224,6.813-.312,1.7-.387,1.67-.785,3.335-.793,3.334-.4,1.665-.472,1.633-1.905,6.525-.481,1.63-.548,1.6-1.1,3.193a218.586,218.586,0,0,1-10.3,24.8,216.115,216.115,0,0,1-29.324,44.926c-2.872,3.5-6.089,6.806-9.254,10.132-1.6,1.646-3.3,3.179-4.956,4.767l-2.5,2.358c-.844.769-1.719,1.486-2.578,2.23l-5.187,4.41-5.35,4.125-2.685,2.046-2.753,1.923c-1.839,1.275-3.67,2.567-5.522,3.818l-5.659,3.563c-.947.587-1.884,1.193-2.839,1.763l-2.9,1.647-5.809,3.273-5.938,3.019-2.973,1.5-3.035,1.376-6.075,2.734-6.2,2.471-3.1,1.225c-1.044.386-2.106.735-3.159,1.1l-6.333,2.166c-2.136.664-4.3,1.264-6.449,1.893l-3.231.927c-1.078.306-2.188.535-3.281.8l-6.585,1.542c-2.215.459-4.464.829-6.7,1.239l-3.354.595c-1.12.19-2.269.3-3.4.451l-6.824.828c-2.3.188-4.62.313-6.929.462l-3.467.206-3.515.013-6.965-.025-11.568-.326c-7.709-.254-15.42-.348-23.125-.488-7.705-.155-15.412-.13-23.112-.205l-23.094.089q-46.172.484-92.153,3.092-45.972,2.559-91.683,7.18c-7.617.766-15.231,1.532-22.833,2.4l-11.392,1.265-11.23,1.339c-7.509.793-14.912,2.027-22.348,3.11-7.539,1.177-15.113,2.319-22.653,3.56q-90.569,14.605-179.7,35.172c-118.842,27.243-235.757,61.26-351.438,98.925q-43.374,14.173-86.575,28.9-21.6,7.374-43.16,14.884l-21.556,7.527-21.418,7.63c-57.114,20.437-114.091,42.419-172,63.212-14.432,5.263-29.034,10.284-43.578,15.391-14.655,4.92-29.241,9.977-44.039,14.637-14.705,4.849-29.619,9.262-44.489,13.782-7.469,2.179-14.986,4.248-22.481,6.375-3.754,1.044-7.488,2.143-11.261,3.141l-11.347,2.928-11.349,2.927c-3.781.98-7.56,1.969-11.389,2.816l-22.9,5.3c-3.8.928-7.672,1.646-11.518,2.438l-11.551,2.336-11.555,2.332-11.643,2.006-11.65,1.987-5.826.991-1.608.274c-.174.029-.368.092-.52.123-.01.006.092-.022-.286.074l-.794.2a213.356,213.356,0,0,1-25.845,4.908,204.167,204.167,0,0,1-52.853-.214l-6.533-.988-6.486-1.19c-2.154-.427-4.289-.922-6.433-1.386s-4.325-1.068-6.484-1.6a209.038,209.038,0,0,1-25.117-8.546,202.991,202.991,0,0,1-45.944-26.411c-1.77-1.327-3.469-2.739-5.2-4.109s-3.374-2.842-5.06-4.265-3.276-2.94-4.914-4.412-3.213-3.067-4.816-4.6a210.705,210.705,0,0,1-17.6-19.84,202.838,202.838,0,0,1-26.925-45.772c-.866-2.04-1.663-4.1-2.492-6.157-.8-2.064-1.529-4.147-2.291-6.222-.73-2.083-1.395-4.184-2.089-6.278-.671-2.116-1.288-4.3-1.926-6.446-.609-2.161-1.115-4.344-1.67-6.517s-.961-4.311-1.442-6.471c-.886-4.319-1.661-8.672-2.278-13.059a204.03,204.03,0,0,1-.6-53.168,212.459,212.459,0,0,1,4.812-26.085c.689-2.734.737-2.793.868-3.606l1.054-6,1.057-6c.363-2,.791-3.979,1.184-5.969.828-3.97,1.553-7.97,2.472-11.915l2.7-11.853c1.964-7.851,3.909-15.713,6.128-23.481,1.1-5.852,1.092-7.354.05-5.051-.516,1.154-1.283,3.261-2.28,6.255s-2.268,6.86-3.573,11.611c-1.34,4.737-2.92,10.286-4.441,16.671-.761,3.191-1.667,6.542-2.419,10.133q-1.163,5.376-2.442,11.287c-.8,3.953-1.541,8.1-2.354,12.41q-.15.808-.3,1.624c-.038.213-.017.068-.017.06,0-.033.016-.089,0-.017l-.053.248c-.016.083-.049.162-.07.244s-.053.2-.04.116q-.207.781-.417,1.57-.469,1.807-.947,3.647-.426,1.857-.86,3.747a204.587,204.587,0,0,0-4.733,32.865q-.125,2.2-.252,4.44-.056,2.24-.113,4.507c-.112,3.024,0,6.087.013,9.187.227,6.19.569,12.537,1.385,18.95.164,1.61.39,3.217.631,4.83s.454,3.24.733,4.861c.578,3.236,1.134,6.515,1.869,9.773.651,3.251,1.524,6.617,2.358,9.984.948,3.333,1.908,6.778,3.007,10.034,1.037,3.309,2.261,6.6,3.471,9.926,1.3,3.3,2.6,6.624,4.081,9.917a205.874,205.874,0,0,0,9.893,19.633,209.144,209.144,0,0,0,105.63,90.762l5.774,2.135c1.93.7,3.884,1.314,5.83,1.97,1.92.665,3.992,1.227,5.988,1.837,2.008.629,4.045,1.123,6.079,1.641l3.055.769,3.018.67c2.014.438,4.019.9,6.06,1.26,4.057.8,8.163,1.434,12.281,2.014a210.586,210.586,0,0,0,74.691-3.553c2.028-.429,4.013-.979,6.018-1.468l.349-.087a2.4,2.4,0,0,1,.355-.073l-.013,0c-.009,0-.267.042-.065.009l.155-.026.01,0,.174-.03,1.355-.23,10.828-1.841,10.8-1.839c3.593-.613,7.188-1.2,10.727-1.954l21.208-4.281c7.062-1.336,13.955-3.076,20.859-4.632l10.3-2.381c3.421-.792,6.841-1.554,10.195-2.454,13.45-3.508,26.774-6.743,39.581-10.487,51.474-14.395,97.364-29.968,134.344-42.955,9.271-3.216,17.913-6.376,26.018-9.245l22.368-8.053,32.428-11.7c15.681-5.6,18.889-6.494,5.526-1.12-48.461,18.334-90.089,33.739-126.807,46.371l-13.511,4.671-13.121,4.338c-8.6,2.816-16.836,5.644-24.933,8.1l-23.39,7.3-22.078,6.435c-3.573,1.018-7.054,2.109-10.552,3.022l-10.318,2.764c-6.786,1.8-13.36,3.615-19.818,5.272l-19.031,4.6-9.218,2.224c-3.042.742-6.106,1.326-9.119,1.987-12.091,2.519-23.728,5.213-35.451,7.169l-17.462,3.146-1.09.195c-.13.024-.531.094-.23.047l.224-.038c.1-.019,0,0,.01,0a3.779,3.779,0,0,0-.375.1l.131-.024-.612.16-1.225.319-2.452.635c-1.637.42-3.3.767-4.956,1.15s-3.316.751-5,1.058a212.928,212.928,0,0,1-86.413-.546c-3.774-.762-7.73-1.755-11.681-2.78l-5.945-1.731-5.84-1.886a218.091,218.091,0,0,1-23.7-9.578,212.991,212.991,0,0,1-47.285-30.738c-1.938-1.6-3.764-3.33-5.67-5.021-1.89-1.7-3.759-3.558-5.656-5.364-1.861-1.853-3.7-3.775-5.548-5.7-1.771-1.958-3.595-3.893-5.354-5.934a219.345,219.345,0,0,1-20.111-27.011,214.093,214.093,0,0,1-16.617-32.331c-2.439-5.8-4.512-11.8-6.51-17.978-.945-3.181-1.963-6.382-2.745-9.66-.4-1.628-.859-3.294-1.214-4.914s-.717-3.255-1.078-4.9a215.842,215.842,0,0,1-.4-87.1c.816-3.819,1.635-7.678,2.643-11.507l.169-.672.01-.047.182-1.047q.456-2.649.917-5.322c1.154-7.15,2.69-14.331,4.133-21.683q4.728-21.933,11.223-45.025c-3,10.454-6.714,23.517-10.233,39.289q-.674,2.952-1.371,6.017-.635,3.087-1.29,6.288c-.874,4.267-1.8,8.677-2.581,13.287l-1.246,7.009-.158.891c-.013.073-.081.469-.05.276l.042-.242c-.021.073-.028.15-.055.222l-.014.056c-.006.032.019-.1.03-.136l-.2.788q-.257,1-.514,2.011c-.719,2.679-1.276,5.463-1.909,8.26-.6,2.809-1.108,5.691-1.645,8.6a218.1,218.1,0,0,0-3.044,37.532c0,6.62.436,13.383,1.076,20.262.705,6.874,1.766,13.838,3.124,20.87a220.627,220.627,0,0,0,5.466,21.557,228.5,228.5,0,0,0,7.938,21.428,213.011,213.011,0,0,0,24.056,42.081A218.214,218.214,0,0,0,3977,1408c1.471,1.575,3,3.143,4.51,4.717s3.127,3.067,4.7,4.606c3.187,3.019,6.4,5.928,9.794,8.78a215.013,215.013,0,0,0,45.9,29.75,219.934,219.934,0,0,0,26.337,10.583c2.231.767,4.593,1.467,6.956,2.166,2.352.735,4.739,1.323,7.131,1.928,2.41.636,4.761,1.146,7.125,1.661,2.358.544,4.756.987,7.161,1.429a217,217,0,0,0,60.132,2.557,221.4,221.4,0,0,0,30.515-5.177l3.509-.878h0l.03-.008.02-.005h0l.047-.012c.022,0,.043,0,.064-.008l-.1.018,6.322-1.069q6.7-1.135,13.459-2.281l6.774-1.152,3.4-.578,3.378-.675,13.585-2.728,13.7-2.759c4.567-.982,9.115-2.076,13.7-3.116,36.7-8.313,74-18.572,111.647-30.286,37.627-11.75,75.622-24.892,113.947-38.728s76.993-28.352,116.068-42.7q29.312-10.762,58.937-21.262c19.79-6.993,39.929-13.933,60.067-20.834q60.5-20.687,122.261-40.495c82.252-26.265,165.832-50.741,249.413-71.924,83.551-21.295,167.107-39.012,249.082-52.442l15.349-2.468,15.291-2.365,14.85-2.2,14.915-1.767c4.908-.6,10.074-1.133,15.1-1.7,5.054-.562,10.1-1.117,15.136-1.608l15.077-1.508,15.019-1.381c19.986-1.742,39.8-3.27,59.419-4.446,19.619-1.148,39.037-2.113,58.227-2.694s38.151-.981,56.848-.977c4.676-.038,9.333-.022,13.975.018l13.874.1c9.213.164,18.362.264,27.433.557l6.791.186,3.386.093,4.369.029,4.476,0,2.234-.013c.74-.015,1.463-.075,2.195-.113l8.737-.561a214.058,214.058,0,0,0,33.123-5.995,240.017,240.017,0,0,0,30.437-10.553,254.467,254.467,0,0,0,27.95-14.242,241.447,241.447,0,0,0,25.508-17.732,208.331,208.331,0,0,0,22.75-21.417,225.7,225.7,0,0,0,33.14-48.512,236.057,236.057,0,0,0,11.319-25.786l2.282-6.611c.368-1.1.769-2.187,1.1-3.3s.656-2.24.983-3.357l1.923-6.692q.8-3.413,1.608-6.8l.784-3.388c.238-1.139.429-2.3.641-3.448q.611-3.452,1.215-6.881c.36-2.3.6-4.663.883-6.981.261-2.332.586-4.62.678-7.007q.2-3.546.391-7.067c.025-.589.068-1.169.077-1.763Zm-1735.26,565.191c-.078.013-.166.029-.269.045l.273-.046Zm.041-.01.017-.005h0Z" fill="#fba10f"></path><path id="Path_42265" data-name="Path 42265" d="M4190.831,1470.11l.01,0h-.01Z" fill="#fba10f"></path><path id="Path_42266" data-name="Path 42266" d="M3927.014,1205.066l-.02.1.009-.041Z" fill="#fba10f"></path><path id="Path_42267" data-name="Path 42267" d="M3927.018,1205.041l0,.025.006-.032C3927.032,1204.974,3927.018,1205.041,3927.018,1205.041Z" fill="#fba10f"></path><path id="Path_42268" data-name="Path 42268" d="M3926.992,1205.185l0-.013,0,.009,0,.01Z" fill="#fba10f"></path><path id="Path_42269" data-name="Path 42269" d="M3926.986,1205.212l0-.016v-.006Z" fill="#fba10f"></path><path id="Path_42270" data-name="Path 42270" d="M3946.837,1215.933c.493-1.958,1.01-4.01,1.538-6.111.052-.175.066-.358.1-.537l.071-.423q.14-.824.28-1.654c.192-1.155.384-2.317.576-3.479,1.562-9.675.709-5.425-.658,2.2-.164.921-.338,1.893-.516,2.9-.053.287-.106.579-.16.873-.076.3-.153.6-.23.9-.555,2.237-1.168,4.505-1.6,6.69-.981,4.34-1.592,8.237-1.886,10.219l1.076-5.335C3945.865,1220.231,3946.339,1218.135,3946.837,1215.933Z" fill="#fba10f"></path><path id="Path_42271" data-name="Path 42271" d="M3941.373,1235.181c.193-1.462.532-3.33.79-5.085s.532-3.381.686-4.342c.8-4.791.482-3.6-.109-.717-.644,2.869-1.284,7.484-1.521,9.428C3940.73,1239.326,3940.97,1238.1,3941.373,1235.181Z" fill="#fba10f"></path><path id="Path_42272" data-name="Path 42272" d="M3944.392,1187.185c-.41,1.811-1.314,6.138-1.726,8.914s-.533,3.951.347-.6C3943.816,1191.855,3946.386,1178.156,3944.392,1187.185Z" fill="#fba10f"></path><path id="Path_42273" data-name="Path 42273" d="M2551.66,1272.01c-.687,2.137-1.119,4.366-1.663,6.561l-.779,3.308c-.268,1.1-.425,2.22-.642,3.33-.4,2.227-.835,4.453-1.189,6.69l-.883,6.737c-.342,2.247-.432,4.508-.645,6.766-.182,2.261-.4,4.524-.439,6.79l-.232,6.809.079,6.817a190.166,190.166,0,0,0,2.512,27.236l.54,3.4c.2,1.129.461,2.247.689,3.372.483,2.245.927,4.5,1.451,6.742,1.2,4.45,2.294,8.937,3.844,13.316,1.343,4.438,3.2,8.73,4.915,13.072l3,6.367.757,1.593c.261.527.566,1.035.848,1.554l1.73,3.1a144.635,144.635,0,0,1-13.318-27.05c-.412-1.094-.871-2.167-1.235-3.254l-1.065-3.237c-.681-2.145-1.444-4.234-2.02-6.323-1.12-4.184-2.332-8.2-3.114-12.133a218.314,218.314,0,0,1-5.175-40.385,232.146,232.146,0,0,1,.538-26.652q.179-2.482.325-4.538c.075-1.375.265-2.6.355-3.7.214-2.194.332-3.843.351-4.961.044-2.231-.314-2.337-1.055-.415-.368.963-.83,2.433-1.38,4.4q-.4,1.479-.89,3.319-.376,1.852-.826,4.061-.422,2.217-.91,4.785c-.3,1.715-.5,3.551-.772,5.5q-.189,1.467-.389,3.017c-.141,1.035-.265,2.1-.335,3.191q-.252,3.282-.528,6.9a208.952,208.952,0,0,0,.942,34.169,192.234,192.234,0,0,0,9.923,43.468c.638,1.982,1.463,3.949,2.287,5.941s1.626,4.014,2.531,6.035q1.464,3,2.961,6.071c.523,1.015.963,2.062,1.565,3.065q.87,1.515,1.747,3.045l1.777,3.072.9,1.545c.3.505.6.945.909,1.423q1.827,2.814,3.691,5.682c1.254,1.906,2.617,3.77,3.944,5.683l2.024,2.867,2.142,2.828c1.457,1.88,2.845,3.833,4.4,5.7l4.663,5.673c3.273,3.715,6.568,7.523,10.205,11.168a206.631,206.631,0,0,0,23.976,21.25,181.978,181.978,0,0,0,29.447,18.061l4.054,1.955c1.358.651,2.786,1.183,4.184,1.779,2.821,1.147,5.62,2.388,8.579,3.325l4.409,1.5,2.22.74,2.27.623,4.566,1.237,2.295.614c.774.211,1.466.344,2.205.52a264.723,264.723,0,0,0,36.2,5.714,229.979,229.979,0,0,0,38.7.165,179.324,179.324,0,0,0,40.6-7.953,143.314,143.314,0,0,0,20.313-8.327c3.331-1.7,6.638-3.512,9.876-5.512,1.608-1.022,3.244-2,4.812-3.113l2.373-1.636,2.044-1.444,31.49-22.417c10.649-7.559,21.367-15.311,32.373-22.924,21.962-15.293,44.3-31.12,67.349-46.772l34.761-23.822,35.5-23.863,17.92-12.055,18.13-11.961,36.536-24.089c49.166-31.894,99.245-64.114,149.894-95.287,101.031-62.779,203.6-122.5,299.953-176.189l17.97-10.034,17.874-9.78,35.148-19.259,67.974-36.479,64.179-33.711q31.016-16.111,59.642-30.644c76.153-38.752,138.428-68.335,178.483-87.66-22.788,8.823-56.048,22.533-95.616,40.023s-85.429,38.782-133.623,62.216q-18.081,8.769-36.509,17.971l-37.071,18.488-9.327,4.656-9.29,4.757L3659,955.71c-12.384,6.373-24.8,12.655-37.065,19.067-49.034,25.671-96.756,51.141-139.206,74.7-85.008,46.928-149.612,84.943-165.763,94.1-8.067,4.594-4.087,1.87,15.69-10.24l42.13-25.219,14.575-8.668,16.363-9.521,38.029-22.1c72.876-41.709,150.916-84.676,229.744-126.164,9.813-5.263,19.72-10.347,29.594-15.473l29.589-15.353c19.681-10.252,39.412-20.231,59.012-30.113,39.218-19.731,78.092-38.727,116.063-56.656-19.337,8.655-39.519,17.914-60.209,27.609q72.3-34.679,145.886-66.589c85.761-35.378,173.237-66.954,262.381-92.456-84.1,91.523-165.571,191.471-219.616,304.124-18.1,37.738-34.638,76.335-47.886,115.965q-6.549,17.577-12.147,35.523c-2.379,7.487-4.482,15.057-6.6,22.633l-2.938,11.428c-.977,3.812-1.8,7.661-2.7,11.494-.923,3.83-1.684,7.693-2.465,11.555l-1.166,5.739a24.376,24.376,0,0,1-.658,2.614l-.809,2.878a187.372,187.372,0,0,0-4.808,23.474,180.615,180.615,0,0,0-.184,48.086,185.294,185.294,0,0,0,4.652,23.761,188.607,188.607,0,0,0,7.833,22.973,182,182,0,0,0,24.5,42.039,185.582,185.582,0,0,0,16.243,18.3,190.224,190.224,0,0,0,18.534,16.033,183.749,183.749,0,0,0,42.773,24.152,187.991,187.991,0,0,1-46.458-25.063,194.653,194.653,0,0,1-18.323-15.365,196.79,196.79,0,0,1-15.2-16.265,189.039,189.039,0,0,1-22.042-32.891c-2.791-5.388-5.314-10.618-7.4-15.734-1.1-2.537-2.01-5.072-2.975-7.517-.859-2.487-1.771-4.859-2.52-7.268a204.818,204.818,0,0,1-9.135-46.567c-.938-11.738-.669-19.489-.772-23.382-.056-3.9-.421-3.981-1.083-.425a127.694,127.694,0,0,0-1.593,21.46,188.543,188.543,0,0,0,4.823,41.673c.5,2.121.967,4.3,1.614,6.5.608,2.2,1.229,4.46,1.952,6.687q.53,1.686,1.068,3.4l1.2,3.445c.779,2.329,1.7,4.662,2.619,7.048a193.132,193.132,0,0,0,14.688,29.556c3.1,5.005,6.474,10.065,10.215,15.072,3.766,4.983,7.83,9.964,12.258,14.837a197.71,197.71,0,0,0,31.238,27.674,191.856,191.856,0,0,0,40.252,22.056c1.838.784,3.727,1.449,5.609,2.166s3.8,1.362,5.721,2.017c1.906.67,3.885,1.278,5.881,1.879l3,.9,3.036.794a205.268,205.268,0,0,0,24.908,4.9,196.753,196.753,0,0,0,53.569-.26c2.289-.32,4.584-.659,6.867-1.092l3.44-.616,3.427-.717,3.439-.734,3.421-.837,1.357-.333c.243-.046.542-.146.818-.178l2.318-.375,26.333-4.329c35.49-6.432,72.559-15.016,110.8-25.612,38.246-10.578,77.656-23.151,118.068-37.077s81.85-29.174,124.354-44.792q31.885-11.723,64.6-23.514c10.908-3.928,21.9-7.737,32.947-11.651l33.541-11.582q67.531-23.139,138.325-45.848c94.294-30.032,192.582-58.642,293.52-82.932q75.664-18.3,153.112-32.828,38.665-7.19,77.613-13.322l9.736-1.509,9.617-1.443,4.795-.714c1.6-.245,3.2-.482,4.809-.655l9.654-1.147,9.679-1.136,9.786-1.079c6.523-.742,13.051-1.4,19.581-2.058,52.23-5.264,104.583-8.69,156.709-10.052q39.093-1.023,77.965-.485c6.474.111,12.944.17,19.4.373l9.686.256,2.42.064c.807.021,1.567.048,2.59.044H5715a173.13,173.13,0,0,0,44.248-6.47,216.274,216.274,0,0,0,76.827-39.252,181.321,181.321,0,0,0,30.473-31.253,216.165,216.165,0,0,0,22.462-36.2,211.836,211.836,0,0,0,14.9-39.669,169.466,169.466,0,0,0,5.687-42.868l-.075-5.538c0-.953-.069-1.775-.122-2.627l-.166-2.548-.336-5.09-.508-5.081c-.179-1.693-.33-3.385-.538-5.073l-.7-5.06c-.254-1.684-.435-3.372-.751-5.049l-.9-5.033a225.134,225.134,0,0,0-11-39.484,185.6,185.6,0,0,0-18.886-36.856c-2.018-2.844-3.951-5.735-6.062-8.508l-3.257-4.1c-1.106-1.349-2.13-2.756-3.334-4.03l-3.51-3.89c-1.178-1.288-2.316-2.609-3.6-3.8l-3.753-3.656c-1.252-1.217-2.511-2.459-3.743-3.5a232.325,232.325,0,0,0-31.5-23.877,209.459,209.459,0,0,0-35.221-17.817,206.894,206.894,0,0,0-37.506-10.717l-4.751-.878-4.762-.679-4.757-.658c-1.586-.186-3.172-.314-4.756-.471l-4.749-.444c-1.582-.142-3.161-.182-4.739-.275l-4.731-.237-1.181-.058-1.093-.022-2.174-.039-34.521-.612c-5.712-.158-11.4-.029-17.07-.037l-16.94.068-8.421.036c-2.8.006-5.6.015-8.384.107l-16.663.416c-11.062.309-22.039.451-32.9,1.042l-32.307,1.48-31.673,2.068c-41.8,3.041-81.9,6.808-119.99,11.646-76.237,9.242-144.525,21.411-203.375,33.384-58.85,12.027-108.243,24.092-146.768,34.15,42.8-9.141,105.779-22.687,182.139-35.421,38.141-6.547,79.669-12.613,123.572-18.131l16.578-2.017c5.562-.663,11.147-1.406,16.79-1.957l34.188-3.6c23.062-2.1,46.572-4.284,70.474-5.81,47.781-3.264,97.007-5.183,146.638-5.319l37.279.269c12.438.275,24.884.687,37.323,1.023l4.664.133,2.338.073,2.407.144c3.206.223,6.417.309,9.613.7,3.2.35,6.4.6,9.579,1.138,3.182.475,6.368.91,9.517,1.585a194.659,194.659,0,0,1,36.913,10.891,196.894,196.894,0,0,1,33.814,17.8,219.944,219.944,0,0,1,29.578,23.429,149.733,149.733,0,0,1,23.973,29.247,174.88,174.88,0,0,1,16.225,33.3,210.108,210.108,0,0,1,9.367,34.959c1.065,5.873,1.876,11.753,2.479,17.617q.207,2.2.413,4.4l.2,2.194.127,2.2q.127,2.195.253,4.382l.125,2.186.019,2.241a147.512,147.512,0,0,1-3.615,34.937,181.656,181.656,0,0,1-10.4,32.288,207.128,207.128,0,0,1-15.216,29.117,185.132,185.132,0,0,1-19.128,25.488,167.779,167.779,0,0,1-22.706,20.82,185.838,185.838,0,0,1-24.673,16.03,193.515,193.515,0,0,1-51.067,19.36l-3.16.714-3.173.554c-2.111.35-4.192.77-6.283,1.052-4.2.475-8.311,1.069-12.418,1.2l-3.057.174-1.519.086-1.519-.005-6.012-.037c-1.008,0-1.961-.027-2.9-.063l-2.822-.1-5.568-.189c-58.864-1.967-100.373-.836-116.839-.626-8.237.151-10.223.1-5.006-.192s17.634-.851,38.215-1.272,49.328-.68,87.161.354c2.372.054,4.747.143,7.218.17l7.608-.01c2.566-.119,5.164-.318,7.8-.48,1.322-.051,2.635-.26,3.964-.414l4.01-.5a175.711,175.711,0,0,0,33.221-8.142,198.6,198.6,0,0,0,34.314-15.8l2.163-1.23,2.117-1.335,4.272-2.694c1.452-.872,2.812-1.905,4.228-2.869l4.239-2.96,4.144-3.195c1.38-1.083,2.813-2.114,4.138-3.3,2.691-2.317,5.478-4.583,8.063-7.147a159.114,159.114,0,0,0,18.989-21.334,204.587,204.587,0,0,0,15.479-24.17,213.7,213.7,0,0,0,11.865-26.332,178.074,178.074,0,0,0,7.743-28.048l.642-3.6c.216-1.2.444-2.4.561-3.62l.866-7.291.418-7.352c.1-1.225.071-2.456.056-3.688l-.039-3.7a237.175,237.175,0,0,0-2.711-29.191,221.749,221.749,0,0,0-6.578-28.714l-1.1-3.531c-.362-1.178-.723-2.357-1.163-3.511l-2.522-6.967-2.856-6.85c-.454-1.151-1-2.264-1.535-3.382l-1.6-3.355a165.018,165.018,0,0,0-15.438-25.477,150.047,150.047,0,0,0-20.318-21.941l-2.8-2.461c-.928-.826-1.863-1.644-2.841-2.413l-5.8-4.7-5.991-4.461c-1.994-1.493-4.1-2.829-6.149-4.251a199.04,199.04,0,0,0-26.075-14.7,191.905,191.905,0,0,0-57.568-16.245l-7.472-.728c-1.245-.139-2.493-.215-3.743-.27l-3.747-.2c-1.248-.06-2.5-.144-3.745-.185l-3.714-.077-7.431-.152-29.726-.608-29.73.015c-4.954.02-9.908-.02-14.86.05l-14.851.327-14.844.328-7.418.164-3.709.086-3.706.157-29.618,1.252c-39.436,2.02-78.7,4.747-117.545,8.824l-14.56,1.444c-4.85.471-9.678,1.1-14.51,1.647l-28.916,3.38-28.725,3.826-14.306,1.919-14.237,2.14-28.346,4.28-28.107,4.681-13.982,2.347-13.9,2.529-27.646,5.051c36.327-6.473,74.454-12.607,113.818-18.027-93.4,13.35-186.1,31.633-277.366,53.392-187.205,44.63-370.06,105.35-551.061,170.428,29.644-33.2,60.441-65.379,91.711-97.048,20.889-21.156,42.191-41.884,63.355-62.716,31.575-28.222,62.728-56.986,92-87.878,15.382-16.271,30.223-33.13,44.252-50.719,1.761-2.205,3.541-4.331,5.272-6.665l2.6-3.441,2.51-3.507c1.7-2.321,3.241-4.743,4.869-7.115,1.536-2.422,3.125-4.82,4.6-7.279a331.886,331.886,0,0,0,16.222-30.163,341.682,341.682,0,0,1-16.177,33.023c-1.456,2.5-2.827,4.981-4.314,7.353q-1.094,1.789-2.169,3.548l-2.224,3.435c-1.443,2.286-2.983,4.457-4.459,6.61-.74,1.1-1.478,2.107-2.209,3.107l-2.17,2.985c-11.335,15.885-21.6,28.705-29.959,39.344q-6.386,7.876-11.416,14.084-5.109,6.144-8.835,10.736c-4.974,6.133-8.248,10.112-9.71,12.289-2.97,4.3,1.05,1.108,11.081-8.817,4.965-5.021,11.48-11.672,19.166-20.141,3.9-4.173,8-8.9,12.45-13.981,4.5-5.037,9.079-10.7,14.063-16.656,1.253-1.482,2.49-3.02,3.726-4.6l3.787-4.79,3.9-4.934q.987-1.258,1.989-2.533,1.02-1.368,2.052-2.755a261.413,261.413,0,0,0,15.9-24.165c10.187-17.347,19.093-37.051,27.536-57.979q1.565-3.918,3.157-7.9l1.6-4.076c.584-1.5,1.14-3.021,1.685-4.554a161.463,161.463,0,0,0,5.461-19.136c.731-3.246,1.354-6.855,1.839-9.552q.8-4.437,1.619-8.94c1.1-6.08,2.2-12.413,3.145-19.039s1.725-13.552,2.118-20.829c.071-1.837.174-3.661.187-5.544l.033-2.815-.035-2.7c-.02-1.805-.044-3.617-.136-5.44s-.132-3.649-.279-5.485a207.374,207.374,0,0,0-7.805-44.452c-2.11-7.345-4.59-14.593-7.332-21.716q-1.014-2.682-2.1-5.32l-1.082-2.657-1.173-2.7-2.369-5.41-2.574-5.366-1.3-2.689-1.4-2.657c-.939-1.771-1.86-3.556-2.826-5.324-2.033-3.488-3.97-7.051-6.2-10.478A216.762,216.762,0,0,0,4809,339.536l-3.954-4.886-4.155-4.76c-.7-.789-1.384-1.6-2.106-2.37l-2.188-2.306c-1.475-1.524-2.9-3.106-4.433-4.586a232.26,232.26,0,0,0-19.275-17.1,243.5,243.5,0,0,0-21.45-14.914,213.086,213.086,0,0,0-23.724-12.486c-16.471-7.442-34.12-12.412-51.628-15.73-8.767-1.663-17.523-2.93-26.219-3.967-4.336-.493-8.678-.973-12.991-1.385l-1.623-.162-1.753-.151c-1.177-.093-2.365-.208-3.537-.282-2.349-.156-4.694-.293-7.021-.376-18.649-.724-36.494.632-53.5,1.563l-13.092.763c-4.4.278-8.819.485-13.236.824-8.838.631-17.722,1.223-26.629,2a1844.818,1844.818,0,0,0-218.305,31.4c-18.42,3.731-36.829,7.866-55.261,12.144-18.367,4.558-36.854,8.9-55.17,13.965-18.407,4.759-36.64,10.2-54.952,15.43-18.186,5.613-36.454,11.037-54.5,17.067-18.14,5.774-36.069,12.1-54.034,18.253-17.843,6.463-35.728,12.756-53.362,19.536-17.72,6.575-35.213,13.561-52.689,20.417l-26.022,10.584c-4.322,1.775-8.661,3.5-12.955,5.312l-12.87,5.423-12.84,5.411c-4.278,1.794-8.544,3.6-12.778,5.458l-25.382,11.024c-8.433,3.671-16.778,7.46-25.131,11.168l-12.5,5.579-12.4,5.66c-33.062,14.984-65.349,30.334-96.97,45.52-126.411,60.949-240.568,122.45-334.913,176.258-47.178,26.906-89.405,51.907-125.76,74.019-36.376,22.07-66.777,41.454-90.551,56.7,13.565-7.557,30.259-17.005,49.5-27.993,19.261-10.957,41.168-23.281,65.1-36.7,47.884-26.81,104.077-57.647,164.057-89.457,30-15.885,60.966-31.977,92.273-48,31.343-15.955,63.042-31.814,94.506-47.236,62.978-30.754,124.992-59.779,181.165-84.727,112.252-50.166,201.364-83.033,223.612-90.55,11.088-3.884,5.456-1.533-21.947,8.956-27.317,10.692-76.358,29.73-150.725,62.376-48.622,21.329-98.258,44.328-148.271,68.384-50,24.078-100.389,49.223-150.334,75.207-49.957,25.959-99.533,52.641-148.036,79.583s-95.9,54.2-141.59,81.159c23.19-13.192,47.528-26.9,72.665-40.879q-59.742,33.747-118.795,68.622-247.771,146.3-482.487,313.343-29.445,20.958-58.662,42.232a134.969,134.969,0,0,0-50.108,46c-.367.4-.717.812-1.078,1.216-.359.356-.72.709-1.073,1.068-.793.771-1.542,1.582-2.3,2.389s-1.529,1.6-2.248,2.443a128.051,128.051,0,0,0-8.369,10.37,131.419,131.419,0,0,0-13.449,23.215,131.016,131.016,0,0,0-4.952,12.578c-.756,2.144-1.373,4.269-2.028,6.4Z" fill="#fba10f"></path><path id="Path_42274" data-name="Path 42274" d="M3317.608,1187.109c-7.394,4.278-16.853,9.87-25.622,15.147-8.72,5.359-16.747,10.408-21.353,13.475-23.59,15.207-17.1,11.846-2.416,3.149,7.346-4.343,16.732-10.041,25.457-15.386,8.767-5.276,16.848-10.242,21.5-13.271C3338.923,1175.253,3332.4,1178.552,3317.608,1187.109Z" fill="#fba10f"></path><path id="Path_42275" data-name="Path 42275" d="M3189.888,1264.363c-5.184,3.192-12.376,7.563-20.638,12.87l-27.6,17.644-14.994,9.633-7.535,4.863-7.425,4.895c-19.643,12.963-37.808,25.027-48.324,32.18-53.228,36.486-39.083,27.5-6.4,5.772l57.155-37.581,7.288-4.8,7.12-4.609,13.317-8.649c8.37-5.451,15.6-10.188,20.908-13.717,6.754-4.416,12.407-8.195,17.151-11.251l11.383-7.4c5.765-3.777,8.012-5.328,7.519-5.14S3195.082,1261.186,3189.888,1264.363Z" fill="#fba10f"></path><path id="Path_42276" data-name="Path 42276" d="M3238.644,1234.114c2.912-1.651,7.31-4.251,11.621-7.036C3259.212,1221.264,3242,1231.668,3238.644,1234.114Z" fill="#fba10f"></path><path id="Path_42277" data-name="Path 42277" d="M3240.377,1235.464c4.137-2.762-2.348,1.01-3.982,2.17C3232.249,1240.4,3238.75,1236.624,3240.377,1235.464Z" fill="#fba10f"></path><path id="Path_42278" data-name="Path 42278" d="M2522.63,1282.941c-.279,2.014-.585,4.01-.821,5.989.267-2.1.6-4.2.883-6.227.317-2.034.511-4,.89-5.888q-.147.779-.293,1.55-.112.771-.223,1.535Q2522.847,1281.43,2522.63,1282.941Z" fill="#fba10f"></path><path id="Path_42279" data-name="Path 42279" d="M2555.888,1434.841c1.158,1.679,2.429,3.56,3.932,5.508a222.878,222.878,0,0,0,22.537,26.109c2.065,2.159,4.3,4.126,6.375,6.067l3.082,2.818,3.056,2.566c1.993,1.639,3.8,3.209,5.548,4.521s3.322,2.47,4.665,3.44l2.429,1.8c.787.565,1.577,1.071,2.316,1.572l4.077,2.7c2.435,1.656,4.517,2.811,6.09,3.717,3.158,1.8,4.448,2.436,4.278,2.19-.3-.538-6.647-4.381-14.824-10.465-2.056-1.507-4.142-3.231-6.383-4.975-2.264-1.724-4.458-3.665-6.732-5.619l-3.431-2.964-3.326-3.108-3.326-3.115c-1.111-1.032-2.127-2.125-3.183-3.173-4.245-4.179-8.038-8.409-11.42-12.106-3.227-3.8-6.131-7.009-8.1-9.481-10.1-12.5-13.277-17.5-13.258-16.9a34.7,34.7,0,0,0,2.586,4.46Z" fill="#fba10f"></path><path id="Path_42280" data-name="Path 42280" d="M2537.577,1404c.83,1.716,1.681,3.424,2.527,5.091,10.928,19.193-.362-.693-4.69-10.257C2536.106,1400.542,2536.736,1402.288,2537.577,1404Z" fill="#fba10f"></path><path id="Path_42281" data-name="Path 42281" d="M2545.834,1422.867c.969,1.445,1.827,2.628,1.97,2.758.071.06-.04-.155-.409-.757-.187-.3-.437-.7-.758-1.209q-.244-.389-.545-.863l-.694-1.187c-.507-.833-1.012-1.666-1.539-2.489C2541.442,1415.525,2543.817,1419.625,2545.834,1422.867Z" fill="#fba10f"></path><path id="Path_42282" data-name="Path 42282" d="M3772.948,918.25c-16.432,8.1-32.709,16.393-48.959,24.61l-24.329,12.323c-8.1,4.1-16.107,8.339-24.145,12.495l-24.044,12.512c-8,4.177-16.012,8.291-23.928,12.565l-47.465,25.373c-15.736,8.513-31.345,17.157-46.956,25.7-15.639,8.5-31.071,17.269-46.508,25.949L3463.5,1082.8l-5.77,3.252-5.733,3.309-11.457,6.611c-15.255,8.832-30.523,17.562-45.666,26.434l-45.224,26.758c-7.54,4.421-14.995,8.969-22.456,13.49l-22.363,13.553c-59.495,36.246-118.133,72.977-175.753,110.739l-10.83,7.034q-5.423,3.5-10.79,7.082l-21.49,14.268c-14.3,9.533-28.679,18.932-42.837,28.634l-42.578,28.887-42.245,29.276c-14.122,9.69-28.031,19.674-42.019,29.538-13.972,9.888-27.975,19.726-41.808,29.8l-20.812,15.029-10.408,7.514-5.2,3.757-2.6,1.878-3.229,2.265a130.319,130.319,0,0,1-13.722,8.282c-2.334,1.277-4.724,2.367-7.1,3.512-2.4,1.047-4.794,2.137-7.22,3.058a152.629,152.629,0,0,1-14.641,4.983c-4.91,1.443-9.839,2.576-14.765,3.563a220.891,220.891,0,0,1-58.462,3.144q-7.184-.516-14.294-1.426-7.115-.89-14.151-2.181c-2.35-.412-4.687-.889-7.026-1.36l-3.5-.758c-.592-.135-1.144-.239-1.77-.4l-1.876-.484-7.494-1.973c-2.462-.752-4.894-1.591-7.338-2.4a168.416,168.416,0,0,1-27.855-12.547,189.217,189.217,0,0,1-24.927-16.671,215.032,215.032,0,0,1-21.874-19.727,240.833,240.833,0,0,1-18.971-22c-1.507-1.888-2.9-3.845-4.306-5.8s-2.851-3.88-4.155-5.893l-4-5.991c-1.357-2.219-2.713-4.517-4.052-6.782-1.406-2.259-2.512-4.592-3.7-6.909-1.155-2.323-2.4-4.633-3.354-7l-3.024-7.075-2.6-7.148a194.525,194.525,0,0,1-7.628-28.975l-.692-3.651c-.228-1.217-.366-2.44-.553-3.661l-1.028-7.33c-.435-4.9-1.044-9.8-1.189-14.718a215.4,215.4,0,0,1,.429-29.58c.23-2.473.436-4.945.7-7.419l1.04-7.43c.3-2.473.861-4.957,1.315-7.435l.722-3.718c.227-1.257.564-2.385.842-3.584l1.761-7.061.876-3.4c.295-1.137.7-2.448,1.041-3.663,1.455-4.945,3.113-9.862,5.062-14.691a158.048,158.048,0,0,1,14.382-27.826c1.689-3.487,1.922-4.476.669-3.354a24.91,24.91,0,0,0-2.825,3.328c-1.271,1.634-2.765,3.842-4.516,6.551a143.507,143.507,0,0,0-11.534,22.812c-1.921,4.835-3.814,10.282-5.444,15.982l-1.095,4q-.561,2.133-1.139,4.333l-1.16,4.475c-.374,1.537-.677,3.194-1.02,4.822a211.537,211.537,0,0,0-4.226,43.122,218.378,218.378,0,0,0,5.542,49c3.975,16.989,10.012,34.644,20.222,51.7,2.57,4.5,5.009,7.939,7.507,11.72,1.267,1.852,2.61,3.665,3.919,5.5l1.98,2.745c.675.907,1.381,1.8,2.072,2.694l4.185,5.373,4.4,5.246c1.445,1.765,2.987,3.465,4.539,5.159s3.062,3.417,4.672,5.068c3.245,3.285,6.435,6.607,9.893,9.717,3.338,3.2,6.936,6.184,10.486,9.182,1.773,1.5,3.677,2.882,5.51,4.318,1.849,1.423,3.68,2.855,5.633,4.165l5.765,3.989c1.963,1.277,3.976,2.491,5.959,3.726l2.984,1.835c1.016.583,2.053,1.138,3.078,1.7l6.157,3.347,6.333,3.014,3.159,1.479,3.24,1.318,6.457,2.585,6.576,2.2,3.272,1.074c1.1.319,2.217.6,3.321.9l6.611,1.728c8.182,1.913,16.078,3.324,23.914,4.444,7.812,1.111,15.479,1.825,22.937,2.229a233.814,233.814,0,0,0,41.8-1.378,187.334,187.334,0,0,0,33.7-7.352,165.6,165.6,0,0,0,22.438-9.01c5.346-2.63,8.482-4.475,9.259-4.729.761-.3-.854.915-5.311,3.627a158.275,158.275,0,0,1-24.283,10.838,179.112,179.112,0,0,1-23.017,6.3,220.077,220.077,0,0,1-40.858,4.308,266.212,266.212,0,0,1-34.426-1.807c-5.274-.623-10.342-1.338-15.219-2.194-2.442-.413-4.834-.867-7.187-1.329l-3.5-.714c-1.209-.269-2.5-.6-3.733-.9-2.486-.615-4.938-1.218-7.341-1.849l-6.979-2.2c-1.143-.371-2.288-.721-3.405-1.109l-3.281-1.254-6.426-2.5a195.439,195.439,0,0,1-22.932-11.647,215.365,215.365,0,0,1-37.135-28.028,253.446,253.446,0,0,1-31.272-35.62l-1.893-2.576-1.826-2.662-3.716-5.454-3.99-6.549c-.654-1.114-1.37-2.23-1.979-3.372l-1.8-3.461a177.167,177.167,0,0,1-12.5-30.353q-.63-2.055-1.271-4.146-.318-1.047-.638-2.1l-.546-2.126q-1.065-4.278-2.171-8.711-.884-4.447-1.8-9.06c-.329-1.539-.529-3.095-.772-4.665l-.705-4.757a235.5,235.5,0,0,1-1.947-41.666c.1-1.881.1-3.772.285-5.7q.244-2.883.495-5.819c.264-3.907.92-7.926,1.45-12,.241-2.035.67-4.11,1.049-6.2q.594-3.126,1.2-6.312.725-3.008,1.462-6.07l1.49-6.023c.44-1.853,1.126-4.21,1.765-6.452.662-2.258,1.4-4.529,2.154-6.815,1.567-4.564,3.315-9.184,5.345-13.81s4.271-9.277,6.835-13.874c2.533-4.611,5.323-9.2,8.409-13.694a168.106,168.106,0,0,0-20.6,40.117c-.545,1.467-1.03,2.97-1.527,4.5s-1,3.079-1.446,4.662c-1.012,3.361-1.642,5.936-2.452,9.069q-.591,2.354-1.2,4.772-.3,1.211-.6,2.435l-.3,1.234-.262,1.313q-.516,2.639-1.047,5.343c-.338,1.8-.733,3.636-.965,5.472a222.379,222.379,0,0,0-2.406,23.063,237.494,237.494,0,0,0,2.919,51.57q.649,3.435,1.309,6.926c.235,1.163.421,2.331.7,3.5s.561,2.345.844,3.525c.58,2.357,1.121,4.732,1.765,7.121q1.062,3.579,2.141,7.211c.678,2.419,1.565,4.848,2.444,7.292q.661,1.831,1.326,3.676c.443,1.229.881,2.461,1.427,3.692q1.577,3.69,3.175,7.428c.507,1.246,1.152,2.485,1.769,3.729s1.251,2.487,1.879,3.737l1.911,3.751,2.181,3.735,2.223,3.744,1.127,1.875c.38.64.717,1.1,1.079,1.661l4.314,6.475c1.492,2.146,3.048,4.273,4.589,6.425a272.912,272.912,0,0,0,20.9,25.2,239.778,239.778,0,0,0,25.759,23.493,198.074,198.074,0,0,0,31.248,20.24,181.334,181.334,0,0,0,36.952,14.357l4.946,1.29c.864.234,1.547.361,2.315.537l2.253.5c3.009.642,6.035,1.251,9.083,1.8q9.144,1.656,18.538,2.734a257.549,257.549,0,0,0,38.7,1.56,213.69,213.69,0,0,0,40.849-5.314,167.458,167.458,0,0,0,41.786-15.686q5.127-2.794,10.124-6.029c1.674-1.048,3.293-2.234,4.935-3.361l2.079-1.473,1.768-1.269q7.073-5.079,14.2-10.2c19.017-13.631,38.226-27.576,57.89-41.283l29.534-20.781c4.928-3.5,9.924-6.918,14.917-10.359l15-10.336c80.07-55.268,162.981-109.883,242.785-160.119,159.522-100.658,306.837-183.167,388.914-227.771l27.556-15.052c8.073-4.449,15.1-8.125,20.842-11.253,11.507-6.212,18.073-9.842,18.93-10.486s-4,1.7-15.326,7.426c-5.66,2.873-12.96,6.558-21.941,11.206l-32.073,16.9-22.838,12.33c-7.471,4.059-14.763,8.14-21.957,12.1l-41.637,23.008-38.575,21.767-18.27,10.3-17.516,10.095-33.157,19.082-7.912,4.55-7.721,4.539-15.015,8.821-28.392,16.649-6.77,3.964-6.6,3.954q-6.543,3.912-12.839,7.679l-24.268,14.487c-7.789,4.642-15.3,9.085-22.462,13.484l-40.1,24.309-65.361,40-53.533,33.2c-4.255,2.607-8.447,5.261-12.642,7.916l-12.621,7.974-25.857,16.357c-4.418,2.814-8.942,5.633-13.507,8.6l-14.018,9.11-30.361,19.814c-10.767,6.972-22.039,14.658-34.244,22.84l-18.954,12.776c-4.795,3.236-9.727,6.555-14.764,10.011,293.56-203.625,609.2-385.856,928.283-544.963Q3822.167,893.81,3772.948,918.25Z" fill="#fba10f"></path><path id="Path_42283" data-name="Path 42283" d="M2543.891,1257.115c.367-1.245.752-2.55,1.147-3.886.412-1.332.835-2.695,1.257-4.06,1.883-5.648.842-3.222-.681,1.229-.362,1.116-.784,2.353-1.161,3.627l-1.077,3.816c-.61,2.394-1.065,4.421-1.263,5.532C2542.6,1261.663,2543.212,1259.5,2543.891,1257.115Z" fill="#fba10f"></path><path id="Path_42284" data-name="Path 42284" d="M2540.569,1262.144c.561-2.561.306-1.94-.139-.418s-1.078,4.055-1.274,5.116C2538.041,1272.126,2540.175,1264.257,2540.569,1262.144Z" fill="#fba10f"></path><path id="Path_42285" data-name="Path 42285" d="M2542.133,1237.493c-.474,1.071-1.52,3.673-2.038,5.363-.537,1.685-.7,2.413.363-.308.438-1.088,1.463-3.683,2.046-5.35C2543.141,1235.548,2543.33,1234.82,2542.133,1237.493Z" fill="#fba10f"></path></g></g></g></g></svg> 